<svg width="74" height="48" viewBox="0 0 74 48" fill="none" xmlns="http://www.w3.org/2000/svg">
<path d="M0.00709735 25.688L0.00709817 44.4147C0.00709824 45.9648 1.28479 47.2286 2.86771 47.2286L10.8675 47.2286L18.4485 47.2286L33.7879 47.2286L41.3689 47.2286L49.3686 47.2286C50.9445 47.2286 52.2293 45.9718 52.2293 44.4147L52.2293 25.688C52.2293 11.4999 40.5384 -9.40138e-06 26.1146 -8.7709e-06C11.6909 -8.14042e-06 -1.56175e-06 11.4999 -9.41567e-07 25.688L0.00709735 25.688ZM26.1217 9.82416C34.5474 9.82416 41.376 16.5412 41.376 24.8292L41.376 47.2286L33.795 47.2286L33.795 24.6826C33.795 20.5141 30.3594 17.1417 26.1288 17.1417C21.8911 17.1417 18.4627 20.5211 18.4627 24.6826L18.4627 47.2286L10.8817 47.2286L10.8817 24.8292C10.8817 16.5412 17.7102 9.82416 26.1359 9.82416L26.1217 9.82416Z" fill="#246BFD"/>
<path d="M58.7458 9.72351C67.1714 9.72351 74 16.4405 74 24.7286L74 47.1279L66.419 47.1279L66.419 24.5819C66.419 20.4135 62.9835 17.041 58.7529 17.041C54.5152 17.041 51.0867 20.4205 51.0867 24.5819L51.0867 47.1279L43.5057 47.1279L43.5057 24.7286C43.5057 16.4405 50.3343 9.72351 58.76 9.72351L58.7458 9.72351Z" fill="#246BFD"/>
</svg>
