<svg width="20" height="20" viewBox="0 0 20 20" fill="none" xmlns="http://www.w3.org/2000/svg">
<path d="M12.4999 18.9583H7.49992C3.82492 18.9583 2.70825 17.8416 2.70825 14.1666V5.83329C2.70825 2.15829 3.82492 1.04163 7.49992 1.04163H12.4999C16.1749 1.04163 17.2916 2.15829 17.2916 5.83329V14.1666C17.2916 17.8416 16.1749 18.9583 12.4999 18.9583ZM7.49992 2.29163C4.51659 2.29163 3.95825 2.85829 3.95825 5.83329V14.1666C3.95825 17.1416 4.51659 17.7083 7.49992 17.7083H12.4999C15.4833 17.7083 16.0416 17.1416 16.0416 14.1666V5.83329C16.0416 2.85829 15.4833 2.29163 12.4999 2.29163H7.49992Z" fill="#ADADAD"/>
<path d="M11.6666 5.20837H8.33325C7.99159 5.20837 7.70825 4.92504 7.70825 4.58337C7.70825 4.24171 7.99159 3.95837 8.33325 3.95837H11.6666C12.0083 3.95837 12.2916 4.24171 12.2916 4.58337C12.2916 4.92504 12.0083 5.20837 11.6666 5.20837Z" fill="#ADADAD"/>
<path d="M9.99992 16.55C8.94159 16.55 8.08325 15.6917 8.08325 14.6333C8.08325 13.575 8.94159 12.7167 9.99992 12.7167C11.0583 12.7167 11.9166 13.575 11.9166 14.6333C11.9166 15.6917 11.0583 16.55 9.99992 16.55ZM9.99992 13.9583C9.63325 13.9583 9.33325 14.2583 9.33325 14.625C9.33325 14.9917 9.63325 15.2917 9.99992 15.2917C10.3666 15.2917 10.6666 14.9917 10.6666 14.625C10.6666 14.2583 10.3666 13.9583 9.99992 13.9583Z" fill="#ADADAD"/>
</svg>
